<svg xmlns="http://www.w3.org/2000/svg" width="68" height="47" viewBox="0 0 68 47">
  <metadata><?xpacket begin="﻿" id="W5M0MpCehiHzreSzNTczkc9d"?>
<x:xmpmeta xmlns:x="adobe:ns:meta/" x:xmptk="Adobe XMP Core 5.6-c138 79.159824, 2016/09/14-01:09:01        ">
   <rdf:RDF xmlns:rdf="http://www.w3.org/1999/02/22-rdf-syntax-ns#">
      <rdf:Description rdf:about=""/>
   </rdf:RDF>
</x:xmpmeta>
                                                                                                    
                                                                                                    
                                                                                                    
                                                                                                    
                                                                                                    
                                                                                                    
                                                                                                    
                                                                                                    
                                                                                                    
                                                                                                    
                                                                                                    
                                                                                                    
                                                                                                    
                                                                                                    
                                                                                                    
                                                                                                    
                                                                                                    
                                                                                                    
                                                                                                    
                                                                                                    
                           
<?xpacket end="w"?></metadata>
<defs>
    <style>
      .cls-1 {
        fill: #fff;
        fill-rule: evenodd;
      }
    </style>
  </defs>
  <path id="icon_quote" class="cls-1" d="M1487.13,2810.29a28.327,28.327,0,0,1,26.09,17.46,15.721,15.721,0,0,0-11.35-4.86,16.051,16.051,0,1,0,15.86,16.05,30.778,30.778,0,0,0-30.6-30.95h0A1.15,1.15,0,0,0,1487.13,2810.29Zm14.74,42.41a13.761,13.761,0,1,1,13.6-13.76A13.681,13.681,0,0,1,1501.87,2852.7Zm36.26-29.81a16.051,16.051,0,1,0,15.87,16.05,30.778,30.778,0,0,0-30.6-30.95h0a1.15,1.15,0,0,0,0,2.3h0a28.327,28.327,0,0,1,26.09,17.46A15.727,15.727,0,0,0,1538.13,2822.89Zm13.6,16.05a13.6,13.6,0,1,1-13.6-13.76A13.681,13.681,0,0,1,1551.73,2838.94Z" transform="translate(-1486 -2808)"/>
</svg>
