<svg xmlns="http://www.w3.org/2000/svg" width="68" height="47" viewBox="0 0 68 47">
  <metadata><?xpacket begin="﻿" id="W5M0MpCehiHzreSzNTczkc9d"?>
<x:xmpmeta xmlns:x="adobe:ns:meta/" x:xmptk="Adobe XMP Core 5.6-c138 79.159824, 2016/09/14-01:09:01        ">
   <rdf:RDF xmlns:rdf="http://www.w3.org/1999/02/22-rdf-syntax-ns#">
      <rdf:Description rdf:about=""/>
   </rdf:RDF>
</x:xmpmeta>
                                                                                                    
                                                                                                    
                                                                                                    
                                                                                                    
                                                                                                    
                                                                                                    
                                                                                                    
                                                                                                    
                                                                                                    
                                                                                                    
                                                                                                    
                                                                                                    
                                                                                                    
                                                                                                    
                                                                                                    
                                                                                                    
                                                                                                    
                                                                                                    
                                                                                                    
                                                                                                    
                           
<?xpacket end="w"?></metadata>
<defs>
    <style>
      .cls-1 {
        fill: #fff;
        fill-rule: evenodd;
      }
    </style>
  </defs>
  <path id="icon_quote" class="cls-1" d="M481.867,2809.29a28.325,28.325,0,0,0-26.088,17.46,15.729,15.729,0,0,1,11.354-4.86,16.051,16.051,0,1,1-15.866,16.05,30.778,30.778,0,0,1,30.6-30.95h0A1.15,1.15,0,0,1,481.867,2809.29Zm-14.734,42.41a13.761,13.761,0,1,0-13.6-13.76A13.68,13.68,0,0,0,467.133,2851.7Zm-36.266-29.81A16.051,16.051,0,1,1,415,2837.94a30.778,30.778,0,0,1,30.6-30.95h0a1.15,1.15,0,0,1,0,2.3h0a28.326,28.326,0,0,0-26.088,17.46A15.729,15.729,0,0,1,430.867,2821.89Zm-13.6,16.05a13.6,13.6,0,1,0,13.6-13.76A13.68,13.68,0,0,0,417.267,2837.94Z" transform="translate(-415 -2807)"/>
</svg>
